<svg xmlns="http://www.w3.org/2000/svg" xmlns:xlink="http://www.w3.org/1999/xlink" id="infinite-drive-medium" width="75.815" height="43.058" viewBox="0 0 75.815 43.058"><defs><linearGradient id="linear-gradient" y1="0.5" x2="1" y2="0.5" gradientUnits="objectBoundingBox"><stop offset="0" stop-color="#47ddfd"></stop><stop offset="1" stop-color="#8b1d7e"></stop></linearGradient></defs><g id="Medium-1"><path id="Trace-medium-3" d="M42.764,21.529A21.383,21.383,0,1,1,21.382,0,21.456,21.456,0,0,1,42.764,21.529" fill="url(#linear-gradient)"></path><path id="Trace-medium-2" d="M638.6,37.628c0,11.192-4.787,20.268-10.691,20.268S617.22,48.82,617.22,37.628s4.786-20.268,10.69-20.268S638.6,26.433,638.6,37.628" transform="translate(-572.382 -16.099)" fill="url(#linear-gradient)"></path><path id="Trace-medium-1" d="M947.64,64.577c0,10.025-1.683,18.157-3.76,18.157s-3.759-8.13-3.759-18.157S941.8,46.42,943.879,46.42s3.76,8.129,3.76,18.157" transform="translate(-871.825 -43.048)" fill="url(#linear-gradient)"></path></g></svg>