<svg xmlns="http://www.w3.org/2000/svg" xmlns:xlink="http://www.w3.org/1999/xlink" width="50" height="50" viewBox="0 0 50 50"><defs><style>      .cls-1 {        fill: url(#linear-gradient);      }    </style><linearGradient id="linear-gradient" x1="0.052" y1="0.5" x2="0.937" y2="0.5" gradientUnits="objectBoundingBox"><stop offset="0" stop-color="#47ddfd"></stop><stop offset="1" stop-color="#21f1eb"></stop></linearGradient></defs><g id="infinitedrive_telegram" transform="translate(-433 -369)"><circle id="Ellipse_7" data-name="Ellipse 7" class="cls-1" cx="25" cy="25" r="25" transform="translate(433 369)"></circle><path id="icons8-t&#xE9;l&#xE9;gramme-app_1_" data-name="icons8-t&#xE9;l&#xE9;gramme-app (1)" d="M33.378,6.389a2.158,2.158,0,0,0-2.215-.168h0c-.9.362-25.536,10.928-26.539,11.36-.182.063-1.775.658-1.611,1.982a2.4,2.4,0,0,0,1.583,1.745l6.263,2.144c.415,1.383,1.947,6.486,2.286,7.576.211.68.556,1.573,1.159,1.756a1.439,1.439,0,0,0,1.4-.25l3.829-3.551,6.181,4.82.147.088a2.976,2.976,0,0,0,1.206.279A2.231,2.231,0,0,0,27.915,34a2.584,2.584,0,0,0,1.335-1.363l4.617-24A2.128,2.128,0,0,0,33.378,6.389Zm-17,17.921-2.113,5.634L12.155,22.9l16.2-11.972Z" transform="translate(437.043 374.265)"></path></g></svg>