<svg xmlns="http://www.w3.org/2000/svg" xmlns:xlink="http://www.w3.org/1999/xlink" width="50" height="50" viewBox="0 0 50 50"><defs><linearGradient id="linear-gradient" y1="0.5" x2="1" y2="0.5" gradientUnits="objectBoundingBox"><stop offset="0" stop-color="#47ddfd"></stop><stop offset="1" stop-color="#8b1d7e"></stop></linearGradient></defs><path id="insta-infinite-drive" d="M16.889,3A13.9,13.9,0,0,0,3,16.889V39.111A13.9,13.9,0,0,0,16.889,53H39.111A13.9,13.9,0,0,0,53,39.111V16.889A13.9,13.9,0,0,0,39.111,3Zm0,5.556H39.111a8.344,8.344,0,0,1,8.333,8.333V39.111a8.344,8.344,0,0,1-8.333,8.333H16.889a8.344,8.344,0,0,1-8.333-8.333V16.889A8.344,8.344,0,0,1,16.889,8.556Zm25,2.778a2.778,2.778,0,1,0,2.778,2.778A2.778,2.778,0,0,0,41.889,11.333ZM28,14.111A13.889,13.889,0,1,0,41.889,28,13.9,13.9,0,0,0,28,14.111Zm0,5.556A8.333,8.333,0,1,1,19.667,28,8.344,8.344,0,0,1,28,19.667Z" transform="translate(-3 -3)" fill="url(#linear-gradient)"></path></svg>