<svg xmlns="http://www.w3.org/2000/svg" xmlns:xlink="http://www.w3.org/1999/xlink" width="121.484" height="85.04" viewBox="0 0 121.484 85.04"><defs><style>      .logo-yt-1 {        fill: url(#linear-gradient);      }      .logo-yt-2 {        fill: #0f0f0f;      }    </style><linearGradient id="linear-gradient" x1="0.061" y1="0.5" x2="1" y2="0.5" gradientUnits="objectBoundingBox"><stop offset="0" stop-color="#47ddfd"></stop><stop offset="1" stop-color="#21f1eb"></stop></linearGradient></defs><g id="yt-infinite-drive-menu" transform="translate(-84.55 -85.039)"><path id="yt-111" class="logo-yt-1" d="M203.5,98.318a15.216,15.216,0,0,0-10.741-10.74c-9.474-2.539-47.463-2.539-47.463-2.539s-37.989,0-47.463,2.539a15.216,15.216,0,0,0-10.741,10.74c-2.538,9.474-2.538,29.241-2.538,29.241s0,19.767,2.538,29.241a15.214,15.214,0,0,0,10.741,10.74c9.474,2.539,47.463,2.539,47.463,2.539s37.989,0,47.463-2.539A15.214,15.214,0,0,0,203.5,156.8c2.538-9.474,2.538-29.241,2.538-29.241S206.034,107.792,203.5,98.318Z"></path><path id="yt-222" class="logo-yt-2" d="M133.144,145.782,164.7,127.56l-31.561-18.223Z"></path></g></svg>